# xmcd CD database file
#
# Track frame offsets:
#	150
#	9265
#	40810
#	62942
#	85230
#	94427
#	119327
#	127080
#	139857
#	149535
#	177255
#
# Disc length: 2742 seconds
#
# Revision: 0
# Processed by: cddbd v1.5.1PL0 Copyright (c) Steve Scherf et al.
# Submitted via: CDex 1.51
#
DISCID=a00ab40b
DTITLE=すぎやまこういち - 「ドラゴンクエストVI」幻の大地　イン・ブラス
DYEAR=1996
DGENRE=Game
TTITLE0=序曲のマーチ
TTITLE1=木洩れ日の中で〜ハッピーハミング〜ぬくもりの里に
TTITLE2=さすらいのテーマ〜静寂に漂う〜もう一つの世界
TTITLE3=エーゲ海に船出して
TTITLE4=空飛ぶベッド
TTITLE5=ペガサス〜精霊の冠
TTITLE6=迷いの塔
TTITLE7=哀しみのとき
TTITLE8=奇蹟のオカリナ〜神に祈りを
TTITLE9=勇気ある戦い〜敢然と立ち向かう
TTITLE10=時の子守唄
EXTD=YEAR: 1996
EXTT0=
EXTT1=
EXTT2=
EXTT3=
EXTT4=
EXTT5=
EXTT6=
EXTT7=
EXTT8=
EXTT9=
EXTT10=
PLAYORDER=
